<svg width="16" height="17" viewBox="0 0 16 17" fill="none" xmlns="http://www.w3.org/2000/svg">
<mask id="mask0_5060_5082" style="mask-type:alpha" maskUnits="userSpaceOnUse" x="0" y="0" width="16" height="17">
<rect y="0.5" width="16" height="16" fill="currentColor"/>
</mask>
<g mask="url(#mask0_5060_5082)">
<path d="M10.1667 13.3208V12.3336H8.70512C8.37264 12.3336 8.08867 12.2159 7.8532 11.9804C7.61773 11.745 7.5 11.461 7.5 11.1285V5.66696H5.8333V6.65416C5.8333 6.93536 5.7348 7.17446 5.5378 7.37146C5.3408 7.56846 5.1017 7.66696 4.8205 7.66696H2.5128C2.2316 7.66696 1.9925 7.56846 1.7955 7.37146C1.5985 7.17446 1.5 6.93536 1.5 6.65416V3.67979C1.5 3.39859 1.5985 3.15949 1.7955 2.96249C1.9925 2.76549 2.2316 2.66699 2.5128 2.66699H4.8205C5.1017 2.66699 5.3408 2.76549 5.5378 2.96249C5.7348 3.15949 5.8333 3.39859 5.8333 3.67979V4.66699H10.1667V3.67979C10.1667 3.39859 10.2652 3.15949 10.4622 2.96249C10.6592 2.76549 10.8983 2.66699 11.1795 2.66699H13.4872C13.7684 2.66699 14.0075 2.76549 14.2045 2.96249C14.4015 3.15949 14.5 3.39859 14.5 3.67979V6.65416C14.5 6.93536 14.4015 7.17446 14.2045 7.37146C14.0075 7.56846 13.7684 7.66696 13.4872 7.66696H11.1795C10.8983 7.66696 10.6592 7.56846 10.4622 7.37146C10.2652 7.17446 10.1667 6.93536 10.1667 6.65416V5.66696H8.49997V11.1285C8.49997 11.1883 8.5192 11.2375 8.55767 11.276C8.59613 11.3144 8.64528 11.3337 8.70512 11.3337H10.1667V10.3465C10.1667 10.0653 10.2652 9.82616 10.4622 9.62916C10.6592 9.43216 10.8983 9.33366 11.1795 9.33366H13.4872C13.7684 9.33366 14.0075 9.43216 14.2045 9.62916C14.4015 9.82616 14.5 10.0653 14.5 10.3465V13.3208C14.5 13.602 14.4015 13.8411 14.2045 14.0381C14.0075 14.2351 13.7684 14.3336 13.4872 14.3336H11.1795C10.8983 14.3336 10.6592 14.2351 10.4622 14.0381C10.2652 13.8411 10.1667 13.602 10.1667 13.3208ZM11.1666 6.66699H13.5V3.66696H11.1666V6.66699ZM11.1666 13.3337H13.5V10.3336H11.1666V13.3337ZM2.49997 6.66699H4.83333V3.66696H2.49997V6.66699Z" fill="currentColor"/>
</g>
</svg>
