<svg width="12" height="16" viewBox="0 0 12 16" fill="none" xmlns="http://www.w3.org/2000/svg">
<path fill-rule="evenodd" clip-rule="evenodd" d="M10.6979 4.43077C9.82991 2.69596 8.64517 1.21905 7.1437 0L7.28446 0.562637C7.3783 0.914288 7.46628 1.38901 7.54839 1.98681C7.6305 2.58462 7.67155 3.12967 7.67155 3.62198C7.67155 4.39561 7.43695 5.05201 6.96774 5.59121C6.49853 6.13041 5.88857 6.4 5.13783 6.4C4.36363 6.4 3.71261 6.13041 3.18475 5.59121C2.65689 5.05201 2.39296 4.39561 2.39296 3.62198L2.42815 3.34066C0.809376 5.26301 0 7.4901 0 10.022C0 11.663 0.586504 13.0696 1.75953 14.2418C2.93256 15.4139 4.34603 16 6 16C7.65397 16 9.06744 15.4139 10.2405 14.2418C11.4135 13.0696 12 11.663 12 10.022C12 8.02929 11.566 6.16558 10.6979 4.43077ZM8.28062 12.936C7.57886 13.6453 6.72507 13.9999 5.71922 13.9999C5.06424 13.9999 4.50284 13.7694 4.03501 13.3084C3.56717 12.8474 3.33325 12.2859 3.33325 11.624C3.33325 11.033 3.51454 10.5306 3.87711 10.1169C4.23969 9.70317 4.76015 9.42539 5.43852 9.28355C7.02917 8.95257 8.17535 8.30246 8.87711 7.33319C9.18121 8.30246 9.33325 9.319 9.33325 10.3828C9.33325 11.3757 8.98238 12.2268 8.28062 12.936Z" fill="currentColor"/>
</svg>
