<svg width="20" height="20" viewBox="0 0 20 20" fill="none" xmlns="http://www.w3.org/2000/svg">
<mask id="mask0_3972_14919" style="mask-type:alpha" maskUnits="userSpaceOnUse" x="0" y="0" width="20" height="20">
<rect width="20" height="20" fill="#D9D9D9"/>
</mask>
<g mask="url(#mask0_3972_14919)">
<path d="M4.99982 17.9168C4.41757 17.9168 3.92478 17.7151 3.52146 17.3118C3.11816 16.9085 2.9165 16.4157 2.9165 15.8335V14.936C2.9165 14.5218 3.06401 14.1671 3.35902 13.8721C3.65402 13.5771 4.00866 13.4296 4.42292 13.4296H5.4165V3.58991C5.4165 3.17565 5.56401 2.82102 5.85903 2.52602C6.15403 2.231 6.50866 2.0835 6.92292 2.0835H15.5767C15.991 2.0835 16.3456 2.231 16.6406 2.52602C16.9356 2.82102 17.0831 3.17565 17.0831 3.58991V15.8335C17.0831 16.4157 16.8815 16.9085 16.4782 17.3118C16.0749 17.7151 15.5821 17.9168 14.9998 17.9168H4.99982ZM14.9998 16.6668C15.2359 16.6668 15.4338 16.5869 15.5936 16.4272C15.7533 16.2675 15.8332 16.0696 15.8332 15.8335V3.58991C15.8332 3.51512 15.8091 3.45368 15.761 3.4056C15.7129 3.35752 15.6515 3.33348 15.5767 3.33348H6.92292C6.84813 3.33348 6.78669 3.35752 6.73861 3.4056C6.69053 3.45368 6.66648 3.51512 6.66648 3.58991V13.4296H12.6601C13.0744 13.4296 13.429 13.5771 13.724 13.8721C14.019 14.1671 14.1665 14.5218 14.1665 14.936V15.8335C14.1665 16.0696 14.2463 16.2675 14.4061 16.4272C14.5658 16.5869 14.7637 16.6668 14.9998 16.6668ZM8.28507 7.24371C8.10798 7.24371 7.95955 7.18379 7.83978 7.06396C7.71998 6.94411 7.66009 6.79561 7.66009 6.61846C7.66009 6.44129 7.71998 6.29288 7.83978 6.17323C7.95955 6.05357 8.10798 5.99375 8.28507 5.99375H14.2146C14.3917 5.99375 14.5401 6.05367 14.6599 6.17352C14.7797 6.29335 14.8395 6.44185 14.8395 6.61902C14.8395 6.79617 14.7797 6.94457 14.6599 7.06423C14.5401 7.18388 14.3917 7.24371 14.2146 7.24371H8.28507ZM8.28507 9.64756C8.10798 9.64756 7.95955 9.58764 7.83978 9.46779C7.71998 9.34794 7.66009 9.19944 7.66009 9.02229C7.66009 8.84512 7.71998 8.69671 7.83978 8.57706C7.95955 8.45741 8.10798 8.39758 8.28507 8.39758H14.2146C14.3917 8.39758 14.5401 8.4575 14.6599 8.57735C14.7797 8.69718 14.8395 8.84569 14.8395 9.02285C14.8395 9.2 14.7797 9.34841 14.6599 9.46808C14.5401 9.58773 14.3917 9.64756 14.2146 9.64756H8.28507Z" fill="#1AB0FF"/>
</g>
</svg>
