<svg width="20" height="20" viewBox="0 0 20 20" fill="none" xmlns="http://www.w3.org/2000/svg">
<mask id="mask0_1528_23914" style="mask-type:alpha" maskUnits="userSpaceOnUse" x="0" y="0" width="20" height="20">
<rect width="20" height="20" fill="#D9D9D9"/>
</mask>
<g mask="url(#mask0_1528_23914)">
<path d="M10.125 13.6186C10.5994 13.6186 11.0251 13.5003 11.4023 13.2636C11.7794 13.027 11.968 12.6474 11.968 12.125C11.968 11.6902 11.8058 11.3437 11.4816 11.0857C11.1573 10.8277 10.5524 10.5363 9.66669 10.2115C8.80984 9.90385 8.19179 9.55929 7.81252 9.17788C7.43325 8.79647 7.24361 8.29274 7.24361 7.66667C7.24361 7.12928 7.43752 6.63729 7.82534 6.19071C8.21315 5.74413 8.75536 5.4594 9.45194 5.33654V4.89583C9.45194 4.74413 9.50883 4.61138 9.62261 4.49761C9.73638 4.38383 9.86913 4.32694 10.0208 4.32694C10.1725 4.32694 10.3053 4.38383 10.4191 4.49761C10.5328 4.61138 10.5897 4.74413 10.5897 4.89583V5.33654C10.9818 5.36432 11.3467 5.49172 11.6843 5.71875C12.0219 5.94578 12.2975 6.22756 12.5112 6.56411C12.5871 6.67949 12.594 6.80262 12.532 6.93348C12.4701 7.06436 12.3659 7.1565 12.2195 7.20992C12.0817 7.26333 11.9426 7.27028 11.8021 7.23075C11.6616 7.19122 11.5465 7.1111 11.4568 6.99038C11.2965 6.797 11.1002 6.64022 10.8678 6.52002C10.6354 6.39983 10.36 6.33973 10.0417 6.33973C9.5235 6.33973 9.11725 6.4626 8.82292 6.70833C8.52857 6.95406 8.3814 7.2735 8.3814 7.66667C8.3814 8.05983 8.52509 8.36593 8.81248 8.58494C9.09987 8.80395 9.68161 9.06304 10.5577 9.36219C11.5577 9.7233 12.2297 10.1282 12.5737 10.5769C12.9177 11.0256 13.0897 11.5417 13.0897 12.125C13.0897 12.5224 13.0163 12.8713 12.8694 13.1715C12.7225 13.4717 12.5304 13.7241 12.2933 13.9287C12.0561 14.1333 11.786 14.2949 11.4832 14.4135C11.1803 14.532 10.8686 14.6154 10.5481 14.6635V15.1042C10.5481 15.2559 10.4912 15.3886 10.3774 15.5024C10.2636 15.6162 10.1309 15.6731 9.97917 15.6731C9.82746 15.6731 9.69472 15.6162 9.58094 15.5024C9.46716 15.3886 9.41027 15.2559 9.41027 15.1042V14.6218C8.89852 14.5107 8.45515 14.3117 8.08015 14.0248C7.70515 13.738 7.4012 13.3638 7.16829 12.9022C7.10097 12.7559 7.10044 12.6111 7.16669 12.468C7.23293 12.3248 7.33922 12.2265 7.48559 12.1731C7.6234 12.1197 7.76389 12.1205 7.90704 12.1755C8.05021 12.2305 8.15972 12.3227 8.23556 12.4519C8.45138 12.8344 8.72195 13.1245 9.04727 13.3221C9.37259 13.5198 9.73184 13.6186 10.125 13.6186ZM10 18.75C8.375 18.75 6.90037 18.3477 5.57611 17.5432C4.25186 16.7387 3.21313 15.6607 2.45994 14.3092V16.1698C2.45994 16.3472 2.40011 16.4957 2.28046 16.6153C2.16079 16.735 2.01229 16.7948 1.83494 16.7948C1.65761 16.7948 1.50911 16.735 1.38944 16.6153C1.26979 16.4957 1.20996 16.3472 1.20996 16.1698V12.9647C1.20996 12.75 1.28181 12.5708 1.4255 12.4271C1.5692 12.2834 1.74842 12.2115 1.96317 12.2115H5.16829C5.34563 12.2115 5.49413 12.2713 5.61379 12.391C5.73345 12.5107 5.79327 12.6592 5.79327 12.8365C5.79327 13.0138 5.73345 13.1623 5.61379 13.282C5.49413 13.4017 5.34563 13.4615 5.16829 13.4615H3.42625C4.02882 14.6752 4.91932 15.6517 6.09773 16.391C7.27616 17.1303 8.57692 17.5 10 17.5C11.937 17.5 13.609 16.8606 15.016 15.5817C16.4231 14.3029 17.2345 12.7067 17.4503 10.7933C17.4728 10.6191 17.5459 10.4781 17.6699 10.3702C17.7938 10.2623 17.9428 10.2084 18.117 10.2084C18.2943 10.2084 18.4436 10.2679 18.5649 10.387C18.6861 10.5062 18.7355 10.6485 18.7131 10.8141C18.6105 11.9305 18.313 12.9698 17.8205 13.9319C17.328 14.8939 16.692 15.7321 15.9126 16.4463C15.1333 17.1605 14.239 17.723 13.23 18.1338C12.2209 18.5446 11.1442 18.75 10 18.75ZM10 2.5C8.09509 2.5 6.43243 3.13008 5.01202 4.39023C3.59162 5.65037 2.77084 7.2532 2.54969 9.19871C2.52725 9.37285 2.45406 9.51521 2.33013 9.62579C2.20621 9.73636 2.05718 9.79165 1.88304 9.79165C1.70035 9.79165 1.54971 9.73208 1.43113 9.61296C1.31253 9.49385 1.26445 9.34882 1.2869 9.17788C1.40015 8.04006 1.70704 6.98878 2.20756 6.02404C2.70809 5.05931 3.34805 4.22384 4.12744 3.51765C4.90681 2.81145 5.79837 2.25697 6.80211 1.85419C7.80584 1.45141 8.87181 1.25002 10 1.25002C11.609 1.25002 13.0836 1.6536 14.4239 2.46077C15.7642 3.26794 16.8029 4.35529 17.5401 5.72283V3.83017C17.5401 3.65282 17.5999 3.50432 17.7195 3.38467C17.8392 3.26501 17.9877 3.20519 18.165 3.20519C18.3424 3.20519 18.4909 3.26501 18.6106 3.38467C18.7302 3.50432 18.79 3.65282 18.79 3.83017V7.03529C18.79 7.25003 18.7182 7.42924 18.5745 7.57294C18.4308 7.71663 18.2516 7.78848 18.0368 7.78848H14.8317C14.6544 7.78848 14.5059 7.72865 14.3862 7.609C14.2666 7.48935 14.2067 7.34085 14.2067 7.1635C14.2067 6.98615 14.2666 6.83765 14.3862 6.718C14.5059 6.59835 14.6544 6.53852 14.8317 6.53852H16.5738C15.9872 5.34619 15.1034 4.37502 13.9223 3.62502C12.7412 2.87501 11.4338 2.5 10 2.5Z" fill="#006DB3"/>
</g>
</svg>
