<svg width="20" height="20" viewBox="0 0 20 20" fill="none" xmlns="http://www.w3.org/2000/svg">
<mask id="mask0_1528_23844" style="mask-type:alpha" maskUnits="userSpaceOnUse" x="0" y="0" width="20" height="20">
<rect width="20" height="20" fill="#D9D9D9"/>
</mask>
<g mask="url(#mask0_1528_23844)">
<path fill-rule="evenodd" clip-rule="evenodd" d="M6.58152 7.26035V12.5684L5.43483 13.715C4.84631 12.9438 4.53613 12.0238 4.53613 11.0409C4.53613 9.85937 4.99571 8.74832 5.83222 7.91333C6.05898 7.68657 6.31001 7.46739 6.58152 7.26035ZM12.7397 13.4183C12.5326 13.6906 12.3142 13.9416 12.0875 14.1684C11.2517 15.0042 10.1407 15.4637 8.95985 15.4637C7.97697 15.4637 7.05703 15.1536 6.28499 14.565L7.43168 13.4183H12.7397ZM14.189 10.7537C13.9857 11.2785 13.759 11.7692 13.5155 12.2159H8.63527L10.0967 10.7544L14.189 10.7537ZM7.78432 11.3654V6.48514C8.23253 6.24094 8.72322 6.01418 9.24651 5.81093V9.90322L7.78432 11.3654ZM13.3714 7.47957C13.6058 7.24447 13.6058 6.86375 13.3714 6.62865C13.1378 6.39355 12.7556 6.39355 12.5213 6.62865L10.4493 8.70059V5.3993C10.9969 5.23548 11.5755 5.09139 12.1701 4.97156C13.539 4.69702 14.7441 4.5954 15.4426 4.55824C15.4054 5.2552 15.3038 6.45877 15.0285 7.82995C14.9079 8.42681 14.7646 9.0047 14.6008 9.55151H11.2995L13.3714 7.47957ZM16.0653 3.33333C15.9902 3.33333 14.2042 3.33864 11.9502 3.78912C11.1524 3.94914 10.3864 4.14784 9.65834 4.38446C9.19572 4.53538 8.75054 4.70223 8.33418 4.88045C7.82454 5.09887 7.33993 5.34307 6.90233 5.60093C6.8993 5.60244 6.85683 5.62747 6.8538 5.62899C6.13711 6.05521 5.50689 6.53679 4.98132 7.06235C3.91805 8.12562 3.33333 9.53851 3.33333 11.0409C3.33333 12.3294 3.77396 13.5754 4.57861 14.5712L4.00799 15.1283C3.77364 15.3619 3.77364 15.7441 4.00799 15.9777C4.12099 16.0915 4.27191 16.1544 4.43345 16.1544C4.59498 16.1544 4.74591 16.0915 4.85891 15.9785L5.42877 15.4221C6.42454 16.226 7.67134 16.6667 8.95986 16.6667C10.4622 16.6667 11.8744 16.0819 12.9376 15.0187C13.4632 14.4946 13.9455 13.8636 14.368 13.1523C14.3695 13.15 14.3938 13.109 14.3953 13.1068C14.6569 12.6608 14.9011 12.1762 15.1195 11.6666C15.2978 11.2479 15.4654 10.802 15.6193 10.3288C15.8529 9.61435 16.0516 8.84761 16.2109 8.04978C16.6614 5.79659 16.6667 4.00982 16.6667 3.93474C16.6667 3.7732 16.6037 3.62228 16.49 3.51003C16.377 3.39627 16.226 3.33333 16.0653 3.33333Z" fill="#23969F"/>
</g>
</svg>
