<?xml version="1.0" encoding="UTF-8"?>
<svg version="1.1" viewBox="0 0 325 40" xmlns="http://www.w3.org/2000/svg">
<title>Eversource Logo</title>
<g fill="none" fill-rule="evenodd">
<g transform="translate(-170 -88)" fill-rule="nonzero">
<g transform="translate(170 88)">
<g transform="translate(153.13)">
<path id="Path" d="m20.01 0.33548c-7.7083 0-14.118 4-17.361 10.039h34.703c-3.2371-6.0387-9.6272-10.039-17.342-10.039z" fill="#2CAAE2"/>
<path id="Path" d="m20.01 39.445c7.5919 0 13.905-3.9935 17.187-10.032h-34.393c3.2888 6.0452 9.6143 10.032 17.206 10.032z" fill="#007749"/>
<path id="Path" d="m39.013 14.639h-38.024c-0.40706 1.5871-0.62674 3.2645-0.62674 5 0 1.9226 0.25845 3.7677 0.73012 5.5097h37.818c0.47167-1.7419 0.73012-3.5871 0.73012-5.5097-0.0064612-1.7355-0.21968-3.4065-0.62674-5z" fill="#07B14C"/>
</g>
<g fill="#000">
<polygon id="Path" points="0.51044 0.97419 23.383 0.97419 23.383 7.2581 7.8116 7.2581 7.8116 16.606 22.104 16.606 22.104 22.884 7.8116 22.884 7.8116 32.523 24.21 32.523 24.21 38.806 0.51044 38.806"/>
<path id="Path" d="m26.297 0.97419h7.9215l8.0249 24.123c0.7172 2.2065 1.4409 5.6452 1.4409 5.6452h0.10984s0.7172-3.4323 1.4409-5.6452l8.1282-24.123h7.7858l-13.653 37.832h-7.495l-13.704-37.832z"/>
<polygon id="Path" points="64.761 0.97419 87.634 0.97419 87.634 7.2581 72.062 7.2581 72.062 16.606 86.787 16.606 86.787 22.884 72.062 22.884 72.062 32.523 88.461 32.523 88.461 38.806 64.761 38.806"/>
<path id="a" d="m101.4 7.2581v11.368h5.8151c3.5472 0 5.757-2.129 5.757-5.7548 0-2.329-0.75596-4.0129-2.5393-4.8968-0.93688-0.46452-2.1451-0.71613-4.4195-0.71613h-4.6133zm-7.3077-6.2839h12.399c3.922 0 5.6794 0.29677 7.2301 0.87742 4.077 1.5419 6.6938 5.3806 6.6938 10.619 0 4.4194-2.2937 8.6516-6.2351 10.277v0.10968s0.47813 0.5871 1.2793 2l7.7083 13.948h-8.1864l-7.3593-13.897h-6.2092v13.897h-7.3077v-37.832h-0.012922z"/>
<path id="Path" d="m129.02 28.723s4.161 3.9935 9.3559 3.9935c2.7202 0 5.253-1.3548 5.253-4.2839 0-6.3355-17.704-5.3806-17.704-17.013 0-6.4452 5.492-11.077 12.826-11.077 7.5984 0 11.462 4.0452 11.462 4.0452l-3.1725 5.9871s-3.6571-3.3032-8.3479-3.3032c-2.9592 0-5.4404 1.6774-5.4404 4.2323 0 6.2839 17.704 4.8194 17.704 16.935 0 6.071-4.665 11.206-12.69 11.206-8.4771 0-13.2-5.1935-13.2-5.1935l3.9543-5.529z"/>
<path id="Path" d="m196.58 0.97419h7.3077v24.174c0 4.871 3.1725 7.6129 8.0507 7.6129 4.9041 0 8.1088-2.7419 8.1088-7.6645v-24.123h7.3012v24.174c0 8.4645-6.1576 14.297-15.358 14.297-9.2525 0-15.41-5.8323-15.41-14.297v-24.174z"/>
<path d="m240.33 7.2581v11.368h5.8151c3.5472 0 5.757-2.129 5.757-5.7548 0-2.329-0.75596-4.0129-2.5393-4.8968-0.93688-0.46452-2.1451-0.71613-4.4195-0.71613h-4.6133zm-7.3012-6.2839h12.399c3.922 0 5.6794 0.29677 7.2301 0.87742 4.077 1.5419 6.6938 5.3806 6.6938 10.619 0 4.4194-2.2937 8.6516-6.2416 10.277v0.10968s0.47813 0.5871 1.2793 2l7.7082 13.948h-8.1864l-7.3593-13.897h-6.2157v13.897h-7.3012v-37.832h-0.006461z"/>
<path id="b" d="m282.47 0.33548c9.2525 0 14.001 5.1677 14.001 5.1677l-3.4632 5.4839s-4.3226-3.9935-10.215-3.9935c-7.8633 0-12.347 5.8839-12.347 12.619 0 6.8387 4.665 13.155 12.373 13.155 6.4289 0 10.881-4.7935 10.881-4.7935l3.8121 5.2968s-5.2788 6.1742-14.984 6.1742c-11.63 0-19.623-8.5484-19.623-19.703-0.006458-10.994 8.3608-19.406 19.565-19.406z"/>
<polygon points="301.23 0.97419 324.11 0.97419 324.11 7.2581 308.53 7.2581 308.53 16.606 322.82 16.606 322.82 22.884 308.53 22.884 308.53 32.523 324.93 32.523 324.93 38.806 301.23 38.806"/>
</g>
</g>
</g>
</g>
</svg>
