<svg width="20" height="21" viewBox="0 0 20 21" fill="none" xmlns="http://www.w3.org/2000/svg">
<mask id="mask0_1600_2669" style="mask-type:alpha" maskUnits="userSpaceOnUse" x="0" y="0" width="20" height="21">
<rect y="0.5" width="20" height="20" fill="#D9D9D9"/>
</mask>
<g mask="url(#mask0_1600_2669)">
<path d="M10.4166 19.6666C8.44442 19.6666 6.77081 18.9791 5.39581 17.6041C4.02081 16.2291 3.33331 14.5555 3.33331 12.5833V4.66665C3.33331 4.43053 3.41317 4.23262 3.5729 4.0729C3.73262 3.91317 3.93054 3.83331 4.16665 3.83331C4.40276 3.83331 4.60067 3.91317 4.7604 4.0729C4.92012 4.23262 4.99998 4.43053 4.99998 4.66665V9.66665H6.66665V2.99998C6.66665 2.76387 6.74651 2.56595 6.90623 2.40623C7.06595 2.24651 7.26387 2.16665 7.49998 2.16665C7.73609 2.16665 7.93401 2.24651 8.09373 2.40623C8.25345 2.56595 8.33331 2.76387 8.33331 2.99998V9.66665H9.99998V2.16665C9.99998 1.93054 10.0798 1.73262 10.2396 1.5729C10.3993 1.41317 10.5972 1.33331 10.8333 1.33331C11.0694 1.33331 11.2673 1.41317 11.4271 1.5729C11.5868 1.73262 11.6666 1.93054 11.6666 2.16665V9.66665H13.3333V3.83331C13.3333 3.5972 13.4132 3.39929 13.5729 3.23956C13.7326 3.07984 13.9305 2.99998 14.1666 2.99998C14.4028 2.99998 14.6007 3.07984 14.7604 3.23956C14.9201 3.39929 15 3.5972 15 3.83331V8.62498C14.5972 8.91665 14.2882 9.2847 14.0729 9.72915C13.8576 10.1736 13.75 10.6389 13.75 11.125V12.1666H12.7083C11.8333 12.1666 11.0937 12.4687 10.4896 13.0729C9.8854 13.6771 9.58331 14.4166 9.58331 15.2916V16.3333C9.58331 16.5139 9.64234 16.6632 9.7604 16.7812C9.87845 16.8993 10.0278 16.9583 10.2083 16.9583C10.3889 16.9583 10.5382 16.8993 10.6562 16.7812C10.7743 16.6632 10.8333 16.5139 10.8333 16.3333V15.2916C10.8333 14.7639 11.0139 14.3194 11.375 13.9583C11.7361 13.5972 12.1805 13.4166 12.7083 13.4166H14.1666C14.4028 13.4166 14.6007 13.3368 14.7604 13.1771C14.9201 13.0173 15 12.8194 15 12.5833V11.125C15 10.5972 15.1805 10.1528 15.5416 9.79165C15.9028 9.43054 16.3472 9.24998 16.875 9.24998C17.0555 9.24998 17.2048 9.30901 17.3229 9.42706C17.441 9.54512 17.5 9.69442 17.5 9.87498V12.5833C17.5 14.5555 16.8125 16.2291 15.4375 17.6041C14.0625 18.9791 12.3889 19.6666 10.4166 19.6666Z" fill="#942009"/>
</g>
</svg>
