<svg width="20" height="21" viewBox="0 0 20 21" fill="none" xmlns="http://www.w3.org/2000/svg">
<mask id="mask0_1596_131" style="mask-type:alpha" maskUnits="userSpaceOnUse" x="0" y="0" width="20" height="21">
<rect y="0.5" width="20" height="20" fill="#D9D9D9"/>
</mask>
<g mask="url(#mask0_1596_131)">
<path d="M10 14.6667C10.2361 14.6667 10.434 14.5868 10.5938 14.4271C10.7535 14.2674 10.8334 14.0695 10.8334 13.8334C10.8334 13.5972 10.7535 13.3993 10.5938 13.2396C10.434 13.0799 10.2361 13 10 13C9.76391 13 9.56599 13.0799 9.40627 13.2396C9.24655 13.3993 9.16669 13.5972 9.16669 13.8334C9.16669 14.0695 9.24655 14.2674 9.40627 14.4271C9.56599 14.5868 9.76391 14.6667 10 14.6667ZM10 11.3334C10.2361 11.3334 10.434 11.2535 10.5938 11.0938C10.7535 10.934 10.8334 10.7361 10.8334 10.5V7.16669C10.8334 6.93058 10.7535 6.73266 10.5938 6.57294C10.434 6.41321 10.2361 6.33335 10 6.33335C9.76391 6.33335 9.56599 6.41321 9.40627 6.57294C9.24655 6.73266 9.16669 6.93058 9.16669 7.16669V10.5C9.16669 10.7361 9.24655 10.934 9.40627 11.0938C9.56599 11.2535 9.76391 11.3334 10 11.3334ZM10 18.8334C8.84724 18.8334 7.76391 18.6146 6.75002 18.1771C5.73613 17.7396 4.85419 17.1459 4.10419 16.3959C3.35419 15.6459 2.76044 14.7639 2.32294 13.75C1.88544 12.7361 1.66669 11.6528 1.66669 10.5C1.66669 9.34724 1.88544 8.26391 2.32294 7.25002C2.76044 6.23613 3.35419 5.35419 4.10419 4.60419C4.85419 3.85419 5.73613 3.26044 6.75002 2.82294C7.76391 2.38544 8.84724 2.16669 10 2.16669C11.1528 2.16669 12.2361 2.38544 13.25 2.82294C14.2639 3.26044 15.1459 3.85419 15.8959 4.60419C16.6459 5.35419 17.2396 6.23613 17.6771 7.25002C18.1146 8.26391 18.3334 9.34724 18.3334 10.5C18.3334 11.6528 18.1146 12.7361 17.6771 13.75C17.2396 14.7639 16.6459 15.6459 15.8959 16.3959C15.1459 17.1459 14.2639 17.7396 13.25 18.1771C12.2361 18.6146 11.1528 18.8334 10 18.8334Z" fill="#B85300"/>
</g>
</svg>
