<svg width="4" height="5" viewBox="0 0 4 5" fill="none" xmlns="http://www.w3.org/2000/svg">
<path d="M2 4.16665C1.76945 4.16665 1.55278 4.1229 1.35 4.0354C1.14722 3.9479 0.970834 3.82915 0.820834 3.67915C0.670834 3.52915 0.552084 3.35276 0.464584 3.14998C0.377084 2.9472 0.333334 2.73054 0.333334 2.49998C0.333334 2.26942 0.377084 2.05276 0.464584 1.84998C0.552084 1.6472 0.670834 1.47081 0.820834 1.32081C0.970834 1.17081 1.14722 1.05206 1.35 0.964563C1.55278 0.877063 1.76945 0.833313 2 0.833313C2.23056 0.833313 2.44722 0.877063 2.65 0.964563C2.85278 1.05206 3.02917 1.17081 3.17917 1.32081C3.32917 1.47081 3.44792 1.6472 3.53542 1.84998C3.62292 2.05276 3.66667 2.26942 3.66667 2.49998C3.66667 2.73054 3.62292 2.9472 3.53542 3.14998C3.44792 3.35276 3.32917 3.52915 3.17917 3.67915C3.02917 3.82915 2.85278 3.9479 2.65 4.0354C2.44722 4.1229 2.23056 4.16665 2 4.16665Z" fill="#7493A4"/>
</svg>
